<svg width="22" height="20" viewBox="0 0 22 20" fill="none" xmlns="http://www.w3.org/2000/svg">
<path id="Vector" d="M20.625 1.87104L15.1202 1.87106V0.625146C15.1202 0.279753 14.8125 0 14.4327 0C14.0528 0 13.7452 0.279753 13.7452 0.625146V1.87075H8.24519V0.625146C8.24519 0.279753 7.93753 0 7.55769 0C7.17784 0 6.87019 0.279753 6.87019 0.625146V1.87075H1.375C0.615656 1.87075 0 2.43057 0 3.12104V18.7497C0 19.4402 0.615656 20 1.375 20H20.625C21.3843 20 22 19.4402 22 18.7497V3.12104C22 2.43086 21.3843 1.87104 20.625 1.87104ZM20.625 18.7497H1.375V3.12104H6.87019V3.75088C6.87019 4.09625 7.17784 4.37603 7.55769 4.37603C7.93753 4.37603 8.24519 4.09625 8.24519 3.75088V3.12136H13.7452V3.75119C13.7452 4.09658 14.0528 4.37634 14.4327 4.37634C14.8125 4.37634 15.1202 4.09658 15.1202 3.75119V3.12136H20.625V18.7497ZM15.8125 9.99795H17.1875C17.567 9.99795 17.875 9.71788 17.875 9.3728V8.12251C17.875 7.77743 17.567 7.49736 17.1875 7.49736H15.8125C15.433 7.49736 15.125 7.77743 15.125 8.12251V9.3728C15.125 9.71788 15.433 9.99795 15.8125 9.99795ZM15.8125 14.9988H17.1875C17.567 14.9988 17.875 14.7191 17.875 14.3737V13.1234C17.875 12.7783 17.567 12.4982 17.1875 12.4982H15.8125C15.433 12.4982 15.125 12.7783 15.125 13.1234V14.3737C15.125 14.7194 15.433 14.9988 15.8125 14.9988ZM11.6875 12.4982H10.3125C9.933 12.4982 9.625 12.7783 9.625 13.1234V14.3737C9.625 14.7191 9.933 14.9988 10.3125 14.9988H11.6875C12.067 14.9988 12.375 14.7191 12.375 14.3737V13.1234C12.375 12.7786 12.067 12.4982 11.6875 12.4982ZM11.6875 7.49736H10.3125C9.933 7.49736 9.625 7.77743 9.625 8.12251V9.3728C9.625 9.71788 9.933 9.99795 10.3125 9.99795H11.6875C12.067 9.99795 12.375 9.71788 12.375 9.3728V8.12251C12.375 7.77712 12.067 7.49736 11.6875 7.49736ZM6.1875 7.49736H4.8125C4.433 7.49736 4.125 7.77743 4.125 8.12251V9.3728C4.125 9.71788 4.433 9.99795 4.8125 9.99795H6.1875C6.567 9.99795 6.875 9.71788 6.875 9.3728V8.12251C6.875 7.77712 6.567 7.49736 6.1875 7.49736ZM6.1875 12.4982H4.8125C4.433 12.4982 4.125 12.7783 4.125 13.1234V14.3737C4.125 14.7191 4.433 14.9988 4.8125 14.9988H6.1875C6.567 14.9988 6.875 14.7191 6.875 14.3737V13.1234C6.875 12.7786 6.567 12.4982 6.1875 12.4982Z" fill="#9DC84F"/>
</svg>
