<svg width="54" height="60" viewBox="0 0 54 60" fill="none" xmlns="http://www.w3.org/2000/svg">
<g id="Group 1000003055">
<path id="Vector" d="M45 42.0468C48.7341 43.6335 51 45.7176 51 48C51 52.9704 40.2549 57 27 57C13.7452 57 3 52.9704 3 48C3 45.7176 5.26581 43.6335 9 42.0468" stroke="#00526E" stroke-width="6" stroke-linecap="round" stroke-linejoin="round"/>
<path id="Vector_2" d="M42.0002 19.3333C42.0002 28.6116 27.0002 45 27.0002 45C27.0002 45 12.0002 28.6116 12.0002 19.3333C12.0002 10.0549 18.716 3 27.0002 3C35.2844 3 42.0002 10.0549 42.0002 19.3333Z" stroke="#00526E" stroke-width="6" stroke-linecap="round" stroke-linejoin="round"/>
<path id="Vector_3" d="M27 21C28.6569 21 30 19.6569 30 18C30 16.3431 28.6569 15 27 15C25.3431 15 24 16.3431 24 18C24 19.6569 25.3431 21 27 21Z" stroke="#00526E" stroke-width="6" stroke-linecap="round" stroke-linejoin="round"/>
</g>
</svg>
